<?xml version="1.0" standalone="no"?><!DOCTYPE svg PUBLIC "-//W3C//DTD SVG 1.1//EN" "http://www.w3.org/Graphics/SVG/1.1/DTD/svg11.dtd"><svg t="1506069530638" class="icon" style="" viewBox="0 0 1024 1024" version="1.1" xmlns="http://www.w3.org/2000/svg" p-id="3269" xmlns:xlink="http://www.w3.org/1999/xlink" width="32" height="32"><defs><style type="text/css"></style></defs><path d="M258.946 764.927h-28.118c-96.188 0-168.702-72.514-168.702-168.702s72.514-168.702 168.702-168.702h28.118v337.405zM202.712 486.849c-50.217 11.528-84.352 54.013-84.352 109.375s34.134 97.82 84.352 109.403v-218.779z" p-id="3270" fill="#a5a7ab"></path><path d="M793.171 764.927h-28.118v-337.405h28.118c96.188 0 168.702 72.514 168.702 168.702s-72.514 168.702-168.702 168.702M821.288 486.849v218.722c50.217-11.527 84.352-54.013 84.352-109.375 0-55.39-34.134-97.792-84.352-109.347z" p-id="3271" fill="#a5a7ab"></path><path d="M821.288 905.513v-56.234c14.002 0 28.118-8.744 28.118-28.118h56.234c0 48.081-36.271 84.352-84.352 84.352z" p-id="3272" fill="#a5a7ab"></path><path d="M708.82 849.279h112.468v56.234h-112.468v-56.234z" p-id="3273" fill="#a5a7ab"></path><path d="M639.23 962c-46.477 0-84.352-37.846-84.352-84.352 0-46.478 37.874-84.352 84.352-84.352 46.506 0 84.352 37.874 84.352 84.352 0 46.506-37.762 84.352-84.352 84.352M639.23 849.532c-15.492 0-28.118 12.596-28.118 28.118s12.624 28.118 28.118 28.118c15.548 0 28.117-12.596 28.117-28.118s-12.568-28.118-28.117-28.118z" p-id="3274" fill="#a5a7ab"></path><path d="M821.288 371.457h-56.234c0-139.629-113.509-253.222-253.054-253.222s-253.054 113.593-253.054 253.222h-56.234c0-170.614 138.758-309.457 309.288-309.457 170.501 0 309.288 138.843 309.288 309.457z" p-id="3275" fill="#a5a7ab"></path></svg>