<?xml version="1.0" standalone="no"?><!DOCTYPE svg PUBLIC "-//W3C//DTD SVG 1.1//EN" "http://www.w3.org/Graphics/SVG/1.1/DTD/svg11.dtd"><svg t="1505714569004" class="icon" style="" viewBox="0 0 1024 1024" version="1.1" xmlns="http://www.w3.org/2000/svg" p-id="6222" xmlns:xlink="http://www.w3.org/1999/xlink" width="128" height="128"><defs><style type="text/css"></style></defs><path d="M889.6 729.6l-64-49.6c-11.2-9.6-17.6-22.4-17.6-36.8V414.4c0-40-8-78.4-24-115.2-14.4-35.2-36.8-67.2-64-94.4-27.2-27.2-59.2-48-94.4-64-12.8-4.8-25.6-9.6-40-12.8V96c0-41.6-33.6-75.2-75.2-75.2S435.2 54.4 435.2 96v32c-12.8 3.2-27.2 8-40 12.8-35.2 14.4-67.2 36.8-94.4 64-27.2 27.2-48 59.2-64 94.4-16 36.8-24 75.2-24 115.2v228.8c0 14.4-6.4 28.8-17.6 36.8l-64 49.6c-9.6 9.6-17.6 22.4-22.4 38.4-3.2 12.8-3.2 27.2 1.6 41.6 4.8 12.8 12.8 25.6 24 33.6 12.8 9.6 27.2 14.4 43.2 14.4h668.8c16 0 30.4-4.8 43.2-14.4 11.2-8 19.2-20.8 24-33.6 4.8-12.8 4.8-27.2 1.6-41.6-4.8-14.4-12.8-28.8-25.6-38.4z m-96-8l64 49.6c8 6.4 8 14.4 6.4 19.2-1.6 6.4-8 11.2-16 11.2H177.6c-9.6 0-14.4-6.4-16-11.2-1.6-6.4-1.6-14.4 6.4-19.2l64-49.6c24-19.2 38.4-48 38.4-78.4V414.4c0-134.4 108.8-243.2 243.2-243.2 134.4 0 243.2 108.8 243.2 243.2v228.8c-1.6 32 11.2 60.8 36.8 78.4zM512 73.6c12.8 0 22.4 9.6 22.4 22.4v19.2h-44.8V96c0-12.8 9.6-22.4 22.4-22.4z m-99.2 830.4c0 54.4 44.8 99.2 99.2 99.2 54.4 0 99.2-44.8 99.2-99.2v-1.6H412.8v1.6zM251.2 140.8c4.8-4.8 9.6-11.2 9.6-17.6 0-6.4-1.6-14.4-6.4-19.2-4.8-6.4-12.8-9.6-20.8-9.6-6.4 0-11.2 1.6-16 6.4-46.4 38.4-86.4 84.8-115.2 136-30.4 54.4-48 113.6-56 174.4-1.6 14.4 9.6 27.2 24 28.8h3.2c12.8 0 24-9.6 25.6-24 12.8-107.2 67.2-206.4 152-275.2z m668.8 96c-28.8-52.8-67.2-99.2-115.2-136-4.8-3.2-11.2-6.4-16-6.4-8 0-16 3.2-20.8 9.6-9.6 11.2-8 27.2 3.2 36.8 84.8 68.8 139.2 166.4 152 275.2 1.6 12.8 12.8 24 25.6 24h3.2c6.4 0 12.8-4.8 17.6-9.6 4.8-4.8 6.4-12.8 6.4-19.2-6.4-60.8-25.6-120-56-174.4z" fill="#a5a7ab" p-id="6223"></path></svg>