<?xml version="1.0" standalone="no"?><!DOCTYPE svg PUBLIC "-//W3C//DTD SVG 1.1//EN" "http://www.w3.org/Graphics/SVG/1.1/DTD/svg11.dtd"><svg t="1502356274593" class="icon" style="" viewBox="0 0 1024 1024" version="1.1" xmlns="http://www.w3.org/2000/svg" p-id="4169" xmlns:xlink="http://www.w3.org/1999/xlink" width="128" height="128"><defs><style type="text/css"></style></defs><path d="M712.461277 539.372839c0-44.103528-36.121915-80.225442-80.225442-80.225442H391.661837c-44.103528 0-80.225442 36.121915-80.225442 80.225442v120.338163c0 44.103528 36.121915 80.225442 80.225442 80.225442h240.573998c44.103528 0 80.225442-36.121915 80.225442-80.225442V539.372839z m-40.010393 120.235835c0 24.047167-16.065554 40.112721-40.112721 40.112721H391.661837c-24.047167 0-40.112721-16.065554-40.112721-40.112721V539.372839c0-24.047167 16.065554-40.112721 40.112721-40.112721h240.573998c24.047167 0 40.112721 16.065554 40.112721 40.112721v120.235835zM832.79944 338.809234c-12.074748 0-20.056361-7.981613-20.05636-20.056361V198.41471c0-12.074748 7.981613-20.056361 20.05636-20.056361s20.056361 7.981613 20.056361 20.056361v120.338163c0 12.074748-7.981613 20.056361-20.056361 20.056361z" fill="#448AFF" p-id="4170"></path><path d="M832.79944 338.809234H712.461277c-12.074748 0-20.056361-7.981613-20.05636-20.056361s7.981613-20.056361 20.05636-20.056361h120.338163c12.074748 0 20.056361 7.981613 20.056361 20.056361s-7.981613 20.056361-20.056361 20.056361z" fill="#448AFF" p-id="4171"></path><path d="M512 920.341361c-220.517638 0-401.024883-180.507245-401.024883-401.024883s180.507245-401.024883 401.024883-401.024882c128.319776 0 248.657939 60.169082 324.790247 164.441691 7.981613 7.981613 3.990806 20.056361-3.990807 28.037973s-20.056361 3.990806-28.037973-3.990806c-68.150695-92.197861-176.41411-148.376137-292.761467-148.376137-200.461277 0-360.912161 160.450884-360.912161 360.912161s160.450884 360.912161 360.912161 360.912162S872.912161 719.777756 872.912161 519.316478c0-12.074748 7.981613-20.056361 20.056361-20.05636s20.056361 7.981613 20.056361 20.05636c0 220.517638-180.507245 401.024883-401.024883 401.024883z" fill="#448AFF" p-id="4172"></path><path d="M411.718197 479.203757c-12.074748 0-20.056361-7.981613-20.05636-20.05636v-80.225442c0-68.150695 56.178275-120.338163 120.338163-120.338164 68.150695 0 120.338163 56.178275 120.338163 120.338164 0 12.074748-7.981613 20.056361-20.05636 20.05636s-20.056361-7.981613-20.056361-20.05636c0-44.103528-36.121915-80.225442-80.225442-80.225443s-80.225442 36.121915-80.225442 80.225443v80.225442c0 11.972419-7.981613 20.056361-20.056361 20.05636z" fill="#448AFF" p-id="4173"></path></svg>