<?xml version="1.0" standalone="no"?><!DOCTYPE svg PUBLIC "-//W3C//DTD SVG 1.1//EN" "http://www.w3.org/Graphics/SVG/1.1/DTD/svg11.dtd"><svg t="1506071754746" class="icon" style="" viewBox="0 0 1024 1024" version="1.1" xmlns="http://www.w3.org/2000/svg" p-id="4593" xmlns:xlink="http://www.w3.org/1999/xlink" width="32" height="32"><defs><style type="text/css"></style></defs><path d="M958.283268 403.008552 677.706299 122.43598c-5.207469-7.319038-13.752676-12.099197-23.423119-12.099197-15.865243 0-28.732519 12.866277-28.732519 28.735917l0 172.405109c0 15.866642 12.867276 28.734518 28.732519 28.734518 15.869241 0 28.738515-12.867676 28.738515-28.734518L683.021695 209.022075l188.663686 188.65769L82.36534 397.679765c-15.867642 0-28.733519 12.868675-28.733519 28.735517 0 15.867242 12.865677 28.735917 28.733519 28.735917l859.261221 0c15.868241 0 28.737516-12.868675 28.737516-28.735917C970.364077 416.75823 965.591313 408.21802 958.283268 403.008552zM65.710632 620.986763 346.2892 901.559735c5.208469 7.319038 13.755074 12.100796 23.42112 12.100796 15.867242 0 28.732919-12.864278 28.732919-28.733519l0-172.409706c0-15.868241-12.865677-28.733519-28.732919-28.733519-15.869241 0-28.735517 12.865277-28.735517 28.733519l0 102.455335-188.662087-188.656691L941.631558 626.31595c15.863245 0 28.732519-12.865277 28.732519-28.734518 0-15.869241-12.869275-28.732519-28.732519-28.732519L82.36534 568.848912c-15.867642 0-28.733519 12.863279-28.733519 28.732519C53.632021 607.240083 58.402187 615.778294 65.710632 620.986763z" p-id="4594" fill="#a5a7ab"></path></svg>